<svg width="580" height="200" xmlns="http://www.w3.org/2000/svg">
 <!-- Created with Method Draw - http://github.com/duopixel/Method-Draw/ -->

 <g>
  <title>Layer 1</title>
  <!-- Created with Method Draw - http://github.com/duopixel/Method-Draw/ -->
  <g stroke="null" id="svg_135">
   <g stroke="null" transform="matrix(1.2303613589871174,0,0,1.2303613589871174,-6421.619221777709,-4329.350695582206) " id="svg_134">
    <title stroke="null" transform="translate(-9.094947017729282e-13,-191.75390625) translate(-32.56351089477539,0) translate(5202.02490234375,0) translate(0,3595.360107421875) ">Layer 1</title>
    <g stroke="null" id="svg_68">
     <g stroke="null" id="svg_120" transform="matrix(1.5280473748629875,0,0,1.5280473748629875,-1823.0291522242435,-1371.4446509191307) ">
      <path stroke="null" fill="#ffffff" d="m4652.991277,3220.116115c0.457,-0.571 0.617,-1.592 0.617,-1.592l-27.415,0c0,0 0.339,1.131 0.625,1.592l26.173,0z" id="svg_132"/>
      <path stroke="null" fill="#ffffff" d="m4651.398277,3222.442115c0.51,-0.454 1.029,-1.363 1.029,-1.363l-25.103,0c0,0 0.282,0.682 0.911,1.363l23.163,0z" id="svg_131"/>
      <path stroke="null" fill="#ffffff" d="m4649.418277,3224.546115c0.621,-0.339 1.131,-1.025 1.131,-1.025l-21.461,0c0,0 0.511,0.571 1.016,1.025l19.314,0z" id="svg_130"/>
      <path stroke="null" fill="#ffffff" d="m4646.912277,3226.533115c0.621,-0.233 1.307,-0.799 1.307,-0.799l-16.742,0c0,0 0,0.123 1.188,0.799l14.247,0z" id="svg_129"/>
      <path stroke="null" fill="#ffffff" d="m4634.591277,3227.778115c0,0 1.763,1.03 5.225,1.03c3.466,0 5.674,-1.03 5.674,-1.03l-10.899,0z" id="svg_128"/>
      <path stroke="null" fill="#ffffff" d="m4634.309277,3230.109115c0,0 2.103,0.11 3.344,1.075c1.196,1.027 2.106,2.726 2.106,2.726s0.739,-1.637 1.935,-2.493c1.188,-0.916 3.123,-1.308 3.123,-1.308l21.633,0l4.258,6.303l-19.424,0c0,0 -1.36,0.055 -3.405,1.255c-1.082,0.615 -1.882,1.696 -1.882,1.696s-0.159,0.512 -0.392,0.79c-0.229,0.29 -0.4,0.521 -0.677,0.627c-0.29,0.123 -0.229,0.055 -0.229,0.055l-10.108,0c0,0 -0.409,-0.161 -0.621,-0.51c-0.229,-0.339 -0.061,-0.222 -0.285,-0.5c-0.171,-0.282 -0.572,-1.028 -2.103,-2.048c-1.588,-1.033 -3.124,-1.136 -3.124,-1.136l-19.75,0l4.303,-6.532l21.298,0z" id="svg_127"/>
      <path stroke="null" fill="#ffffff" d="m4619.029277,3239.021115l0,32.248c0,0 0.115,2.85 2.502,6.704c2.384,3.861 5.842,5.625 5.842,5.625l2.73,-4.258c0,0 -2.379,-1.425 -4.2,-4.152c-1.755,-2.718 -1.755,-5.054 -1.755,-5.054l0,-31.113l-5.119,0z" id="svg_126"/>
      <path stroke="null" fill="#ffffff" d="m4655.599277,3238.910115l0,31.109c0,0 -0.396,3.127 -1.874,5.34c-1.478,2.271 -3.923,4.09 -3.923,4.09l2.625,4.198c0,0 3.968,-2.891 5.895,-5.961c1.935,-3.062 2.396,-7.667 2.396,-7.667l0,-31.109l-5.119,0z" id="svg_125"/>
      <path stroke="null" fill="#ffffff" d="m4610.921277,3239.021115l0,32.367c0,0 0.335,5.001 3.454,10.222c3.135,5.217 8.802,8.855 8.802,8.855l2.674,-4.255c0,0 -3.637,-1.931 -6.528,-6.368c-2.964,-4.482 -3.123,-8.573 -3.123,-8.573l0,-32.248l-5.279,0z" id="svg_124"/>
      <path stroke="null" fill="#ffffff" d="m4634.309277,3242.427115l0,34.183c0,0 -0.126,0.117 -0.167,0.62c-0.061,0.518 -0.4,0.861 -0.4,0.861l-11.41,18.905l34.978,0l-11.418,-19.31l-0.338,-0.857l-0.115,-0.902l0,-33.439l-4.258,0l0,34.7c0,0 0,0.499 0.171,0.903c0.106,0.399 0.343,1.017 0.343,1.017l7.034,11.581l-17.829,0l6.924,-11.524c0,0 0.229,-0.396 0.4,-0.964c0.118,-0.514 0.167,-1.013 0.167,-1.013l0,-34.761l-4.082,0z" id="svg_123"/>
      <path stroke="null" fill="#ffffff" d="m4663.491277,3238.910115l0,31.799c0,0 -0.049,4.087 -3.062,8.799c-3.008,4.718 -6.475,6.702 -6.475,6.702l2.56,4.312c0,0 5.217,-3.294 8.516,-8.516c3.237,-5.226 3.633,-11.297 3.633,-11.297l0,-31.799l-5.172,0z" id="svg_122"/>
      <path stroke="null" fill="#ffffff" d="m4626.018277,3217.614115c0,0 -1.755,-9.59 5.283,-14.367c0,0 3.18,-2.948 8.34,-2.948c5.515,0 8.688,2.892 8.688,2.892c7.667,5.616 5.397,14.423 5.397,14.423l-27.708,0z" id="svg_121"/>
     </g>
     <g stroke="null" id="svg_113" transform="matrix(1.5280473748629875,0,0,1.5280473748629875,-1823.0291522242435,-1371.4446509191307) ">
      <path stroke="null" fill="#ffffff" d="m4701.026277,3212.907115l0,9.311l-1.992,0l0,-0.986l-10.547,0l0,0.986l-1.995,0l0,-9.202c-0.355,0.157 -0.963,0.38 -1.82,0.666l-1.031,-1.909c2.602,-0.629 4.868,-1.752 6.797,-3.368l-6.626,0l0,-1.78l8.812,0l0,-1.74c-3.217,0.085 -5.524,0.131 -6.924,0.131l-0.708,-1.974c0.814,0.029 1.823,0.042 3.023,0.042c5.703,0 10.018,-0.328 12.948,-0.988l0.922,1.76c-1.945,0.4 -4.36,0.723 -7.247,0.966l0,1.802l9.048,0l0,1.78l-6.905,0c1.629,1.572 3.988,2.666 7.077,3.282l-0.945,1.952c-0.285,-0.131 -0.6,-0.245 -0.943,-0.343c-0.342,-0.102 -0.658,-0.229 -0.944,-0.388zm-13.3,-0.491l4.891,0l0,-3.948c-1.245,1.773 -2.875,3.087 -4.891,3.948zm11.304,1.8l-10.553,0l0,1.63l10.553,0l0,-1.63zm-10.553,5.233l10.553,0l0,-1.889l-10.553,0l0,1.889zm6.156,-11.002l0,3.968l5.297,0c-2.188,-0.86 -3.954,-2.182 -5.297,-3.968z" id="svg_119"/>
      <path stroke="null" fill="#ffffff" d="m4715.633277,3215.556115c-0.585,2.319 -1.494,4.449 -2.723,6.393l-1.717,-1.759c1.26,-1.786 2.117,-3.695 2.574,-5.725l1.866,1.091zm-1.329,-3.474c-1.159,-0.985 -2.159,-1.757 -3.002,-2.314l1.286,-1.61c1.017,0.544 2.074,1.238 3.174,2.079l-1.458,1.845zm2.097,-7.656l2.854,0l0,-2.231l1.959,0l0,2.232l3.911,0l0,-2.232l1.935,0l0,2.232l3.539,0l0,1.694l-3.539,0l0,2.209l3.86,0l0,1.8l-4.097,0c0.571,1.16 2.017,2.311 4.333,3.454l-0.923,1.909c-1.315,-0.787 -2.403,-1.566 -3.259,-2.338l0,4.397l-6.906,0l0,1.372c0,0.5 0.251,0.751 0.751,0.751l6.369,0c0.6,0 0.957,-0.222 1.071,-0.666c0.115,-0.457 0.223,-1.25 0.323,-2.38l2.06,0.751c-0.229,1.987 -0.537,3.181 -0.923,3.581c-0.372,0.388 -1.108,0.58 -2.208,0.58l-6.948,0c-0.916,0 -1.56,-0.171 -1.931,-0.514c-0.356,-0.357 -0.535,-1.022 -0.535,-1.994l0,-4.805c-0.359,0.299 -1.016,0.751 -1.973,1.352l-1.224,-1.803c2.374,-1.071 3.875,-2.279 4.503,-3.625l-3.431,0l0,-1.8l3.282,0l0,-2.146l-2.854,0l0,-1.158l-1.309,1.629c-1.172,-1.071 -2.237,-1.908 -3.195,-2.508l1.415,-1.588c1.217,0.773 2.246,1.479 3.089,2.124l0,-0.279l0.001,0zm3.651,9.33l0,2.103l4.934,0l0,-2.103l-4.934,0zm1.631,-3.625c-0.316,0.731 -0.736,1.375 -1.266,1.931l5.468,0c-0.471,-0.528 -0.908,-1.171 -1.308,-1.931l-2.894,0zm-0.473,-3.903l0,2.102l3.905,0l0,-2.102l-3.905,0z" id="svg_118"/>
      <path stroke="null" fill="#ffffff" d="m4742.668277,3205.109115c-0.756,0.144 -1.864,0.266 -3.325,0.364l-0.449,-1.8c3.202,-0.156 5.954,-0.671 8.256,-1.544l0.729,1.76c-1.029,0.356 -2.109,0.65 -3.238,0.879l0,3.025l3.259,0l0,1.844l-3.259,0l0,0.193c1.6,1.486 2.809,2.674 3.625,3.56l-1.201,1.845c-0.431,-0.6 -0.857,-1.143 -1.288,-1.63c-0.373,-0.443 -0.751,-0.922 -1.136,-1.437l0,9.953l-1.974,0.085l0,-8.817c-0.542,1.372 -1.516,2.975 -2.917,4.805l-1.202,-1.931c1.802,-2.046 3.153,-4.254 4.053,-6.627l-3.925,0l0,-1.844l3.99,0l0,-2.683l0.002,0zm4.963,12.292l0,-1.995l7.186,-1.074l0,-12.333l1.993,0l0,12.099l1.932,-0.323l0,1.953l-1.932,0.321l0,6.156l-1.993,0l0,-5.898l-7.186,1.094zm4.669,-4.355c-1.473,-1.229 -2.774,-2.18 -3.903,-2.854l1.266,-1.437c1.071,0.559 2.394,1.437 3.969,2.64l-1.332,1.651zm0.385,-5.213c-1.585,-1.271 -2.874,-2.208 -3.86,-2.809l1.287,-1.416c0.931,0.517 2.238,1.388 3.925,2.616l-1.352,1.609z" id="svg_117"/>
      <path stroke="null" fill="#ffffff" d="m4774.048277,3208.350115l-2.531,0l0,3.793c1.144,-0.372 1.98,-0.686 2.506,-0.943l0,2.102c-0.44,0.244 -1.277,0.572 -2.506,0.987l0,5.255c0,1.015 -0.146,1.686 -0.433,2.017c-0.302,0.343 -0.979,0.514 -2.041,0.514l-1.698,0l-0.49,-2.168l1.862,0.066c0.474,0 0.71,-0.237 0.71,-0.708l0,-4.375c-1.217,0.314 -2.173,0.558 -2.874,0.729l-0.517,-2.318c1.243,-0.156 2.373,-0.371 3.391,-0.642l0,-4.309l-3.175,0l0,-1.955l3.175,0l0,-4.396l2.11,0l0,4.396l2.531,0l0,-1.371l4.609,0l0,-3.025l2.126,0l0,3.025l5.063,0l0,1.952l-5.063,0l0,2.874l4.332,0l0,1.78c-0.188,0.774 -0.657,1.78 -1.412,3.025c-0.747,1.245 -1.527,2.225 -2.343,2.939c1.433,1.172 3.044,2.009 4.85,2.509l-1.095,2.017c-1.887,-0.615 -3.658,-1.681 -5.319,-3.196c-2.258,1.728 -4.417,2.81 -6.479,3.239l-1.176,-1.951c2.058,-0.459 4.114,-1.38 6.173,-2.768c-1.099,-1.115 -2.181,-2.638 -3.233,-4.568l1.78,-0.708c0.983,1.745 1.967,3.111 2.955,4.096c1.462,-1.157 2.498,-2.638 3.111,-4.439l-8.517,0l0,-1.976l4.246,0l0,-2.874l-4.609,0l-0.019,1.375z" id="svg_116"/>
      <path stroke="null" fill="#ffffff" d="m4806.328277,3209.668115c0.331,1.745 1.103,3.573 2.315,5.491c1.217,1.916 2.891,3.574 5.021,4.977l-1.648,1.973c-3.862,-2.531 -6.507,-6.679 -7.937,-12.44l-0.343,0c-0.96,5.162 -3.841,9.321 -8.646,12.484l-1.629,-2.04c2.028,-1.157 3.776,-2.68 5.233,-4.568c1.441,-1.886 2.339,-3.837 2.683,-5.854l-7.402,0l0,-2.275l7.766,0c0.184,-1.302 0.277,-3.095 0.277,-5.384l2.254,0c0,2.46 -0.058,4.254 -0.172,5.384l9.092,0l0,2.274l-6.864,-0.022z" id="svg_115"/>
      <path stroke="null" fill="#ffffff" d="m4836.925277,3213.669115l0,1.564c-1.257,0.672 -2.809,1.294 -4.653,1.866l8.9,0l0,1.737l-8.9,0l0,0.879c0,1.53 -0.653,2.295 -1.952,2.295l-3.15,0l-0.495,-1.736l2.936,0.085c0.433,0 0.646,-0.215 0.646,-0.644l0,-0.879l-9.309,0l0,-1.737l9.309,0l0,-0.923c0.988,-0.171 2.237,-0.477 3.756,-0.922l-9.03,0l0,-1.585l11.942,0zm1.896,-0.923l-15.493,0l0,3.153l-1.906,0l0,-4.847l1.069,0l-0.237,-8.237c1.861,-0.057 3.438,-0.266 4.72,-0.622l0.947,1.585c-0.801,0.273 -2.074,0.465 -3.821,0.58l0.065,1.094l3.347,0l0,1.46l-3.282,0l0.021,1.222l3.262,0l0,1.48l-3.217,0l0.041,1.437l13.432,0l0.024,-1.437l-3.005,0l0,-1.48l3.07,0l0.041,-1.222l-3.111,0l0,-1.46l3.151,0l0.025,-1.18l-3.414,0l0,-1.694l5.3,0l-0.237,8.474l1.144,0l0,4.847l-1.935,0l0,-3.153l-0.001,0zm-7.431,-7.722c-0.711,0.457 -1.551,0.895 -2.507,1.31l-1.095,-1.438c1.201,-0.329 1.989,-0.623 2.36,-0.88c-0.358,-0.286 -0.845,-0.62 -1.462,-1.008l1.16,-1.008c0.56,0.359 1.127,0.751 1.697,1.18c0.613,-0.414 1.05,-0.8 1.308,-1.157l1.068,0.965c-0.31,0.429 -0.734,0.815 -1.265,1.158c0.285,0.257 0.669,0.637 1.14,1.136l-1.311,0.966c-0.57,-0.816 -0.934,-1.224 -1.093,-1.224zm0.131,4.397c-0.657,0.457 -1.494,0.857 -2.507,1.2l-0.923,-1.437c0.984,-0.212 1.73,-0.471 2.229,-0.772c-0.285,-0.213 -0.767,-0.556 -1.437,-1.028l1.114,-0.943c0.274,0.184 0.523,0.343 0.752,0.472c0.273,0.185 0.571,0.406 0.901,0.663c0.425,-0.269 0.923,-0.714 1.479,-1.328l1.135,0.965c-0.526,0.529 -1.013,0.958 -1.453,1.286c0.412,0.359 0.82,0.737 1.221,1.138l-1.376,1.05c-0.654,-0.844 -1.037,-1.266 -1.135,-1.266z" id="svg_114"/>
     </g>
     <g stroke="null" id="svg_69" transform="matrix(1.5280473748629875,0,0,1.5280473748629875,-1823.0291522242435,-1371.4446509191307) ">
      <path stroke="null" fill="#ffffff" d="m4689.962277,3246.318115l-1.965,0l0,-13.966l-3.744,0l0,-1.798l9.451,0l0,1.798l-3.742,0l0,13.966z" id="svg_112"/>
      <path stroke="null" fill="#ffffff" d="m4704.764277,3236.910115l0,-6.357l1.966,0l0,15.764l-1.966,0l0,-7.568l-7.505,0l0,7.569l-1.964,0l0,-15.765l1.964,0l0,6.357l7.505,0z" id="svg_111"/>
      <path stroke="null" fill="#ffffff" d="m4709.783277,3230.553115l8.467,0l0,1.798l-6.503,0l0,4.412l6.315,0l0,1.797l-6.315,0l0,5.959l6.503,0l0,1.798l-8.467,0l0,-15.764z" id="svg_110"/>
      <path stroke="null" fill="#ffffff" d="m4736.439277,3236.910115l0,-6.357l1.965,0l0,15.764l-1.965,0l0,-7.568l-7.505,0l0,7.569l-1.965,0l0,-15.765l1.965,0l0,6.357l7.505,0z" id="svg_109"/>
      <path stroke="null" fill="#ffffff" d="m4756.866277,3238.434115c0,4.685 -3.7,8.218 -8.259,8.218c-4.559,0 -8.259,-3.533 -8.259,-8.218c0,-4.515 3.741,-8.215 8.259,-8.215c4.515,0 8.259,3.7 8.259,8.215zm-1.967,0c0,-3.47 -2.591,-6.376 -6.292,-6.376c-3.702,0 -6.292,2.906 -6.292,6.376c0,3.597 2.884,6.376 6.292,6.376c3.407,0.001 6.292,-2.779 6.292,-6.376z" id="svg_108"/>
      <path stroke="null" fill="#ffffff" d="m4758.789277,3229.800115l11.83,12.398l0,-11.645l1.969,0l0,16.413l-11.834,-12.398l0,11.75l-1.965,0l0,-16.518z" id="svg_107"/>
      <path stroke="null" fill="#ffffff" d="m4789.961277,3238.373115l0,0.627c0,4.328 -3.054,7.652 -7.463,7.652c-4.412,0 -7.969,-3.805 -7.969,-8.174c0,-4.538 3.643,-8.259 8.173,-8.259c2.45,0 4.875,1.107 6.422,3.054l-1.38,1.315c-1.131,-1.547 -3.032,-2.572 -4.956,-2.572c-3.531,0 -6.29,2.864 -6.29,6.397c0,3.306 2.718,6.441 6.123,6.441c2.449,0 5.078,-2.114 5.164,-4.683l-4.078,0l0,-1.798l6.254,0z" id="svg_106"/>
      <path stroke="null" fill="#ffffff" d="m4807.018277,3230.553115l2.572,0l-7.087,7.087l7.213,8.677l-2.653,0l-5.94,-7.338l-0.792,0.752l0,6.585l-1.967,0l0,-15.763l1.967,0l0,6.835l6.687,-6.835z" id="svg_105"/>
      <path stroke="null" fill="#ffffff" d="m4826.524277,3238.434115c0,4.685 -3.698,8.218 -8.255,8.218s-8.259,-3.533 -8.259,-8.218c0,-4.515 3.744,-8.215 8.259,-8.215s8.255,3.7 8.255,8.215zm-1.96,0c0,-3.47 -2.596,-6.376 -6.295,-6.376s-6.295,2.906 -6.295,6.376c0,3.597 2.886,6.376 6.295,6.376c3.405,0.001 6.295,-2.779 6.295,-6.376z" id="svg_104"/>
      <path stroke="null" fill="#ffffff" d="m4828.451277,3229.800115l11.831,12.398l0,-11.645l1.967,0l0,16.413l-11.834,-12.398l0,11.75l-1.964,0l0,-16.518z" id="svg_103"/>
      <path stroke="null" fill="#ffffff" d="m4859.624277,3238.373115l0,0.627c0,4.328 -3.055,7.652 -7.463,7.652c-4.417,0 -7.969,-3.805 -7.969,-8.174c0,-4.538 3.637,-8.259 8.173,-8.259c2.45,0 4.875,1.107 6.422,3.054l-1.381,1.315c-1.13,-1.547 -3.033,-2.572 -4.955,-2.572c-3.531,0 -6.292,2.864 -6.292,6.397c0,3.306 2.72,6.441 6.124,6.441c2.445,0 5.079,-2.114 5.164,-4.683l-4.077,0l0,-1.798l6.254,0z" id="svg_102"/>
      <path stroke="null" fill="#ffffff" d="m4687.412277,3255.634115l0,9.307c0,2.572 0.773,4.952 3.805,4.952s3.805,-2.38 3.805,-4.952l0,-9.307l1.966,0l0,9.977c0,3.47 -2.153,6.124 -5.771,6.124c-3.617,0 -5.771,-2.654 -5.771,-6.124l0,-9.977l1.966,0z" id="svg_101"/>
      <path stroke="null" fill="#ffffff" d="m4699.726277,3254.882115l11.833,12.399l0,-11.647l1.965,0l0,16.415l-11.833,-12.398l0,11.749l-1.966,0l0,-16.518l0.001,0z" id="svg_100"/>
      <path stroke="null" fill="#ffffff" d="m4718.438277,3271.400115l-1.966,0l0,-15.766l1.966,0l0,15.766z" id="svg_99"/>
      <path stroke="null" fill="#ffffff" d="m4726.800277,3267.301115l4.683,-11.667l2.153,0l-6.836,16.603l-6.858,-16.603l2.154,0l4.704,11.667z" id="svg_98"/>
      <path stroke="null" fill="#ffffff" d="m4735.184277,3255.634115l8.467,0l0,1.8l-6.501,0l0,4.413l6.314,0l0,1.796l-6.314,0l0,5.961l6.501,0l0,1.796l-8.467,0l0,-15.766z" id="svg_97"/>
      <path stroke="null" fill="#ffffff" d="m4756.091277,3271.400115l-2.384,0l-4.641,-6.67l-0.815,0l0,6.67l-1.966,0l0,-15.766l2.384,0c1.402,0 2.905,0.024 4.161,0.734c1.316,0.771 2.068,2.257 2.068,3.764c0,2.254 -1.505,4.14 -3.783,4.409l4.976,6.859zm-7.84,-8.299l0.628,0c2.005,0 4.182,-0.381 4.182,-2.888c0,-2.465 -2.344,-2.824 -4.286,-2.824l-0.523,0l0,5.712l-0.001,0z" id="svg_96"/>
      <path stroke="null" fill="#ffffff" d="m4764.851277,3258.625115c-0.584,-0.983 -1.338,-1.485 -2.53,-1.485c-1.255,0 -2.634,0.857 -2.634,2.236c0,1.238 1.213,1.883 2.196,2.259l1.129,0.44c2.235,0.878 3.908,2.11 3.908,4.743c0,2.867 -2.215,4.916 -5.037,4.916c-2.552,0 -4.537,-1.883 -4.872,-4.409l1.985,-0.42c-0.021,1.734 1.359,2.987 3.054,2.987s2.906,-1.42 2.906,-3.074c0,-1.689 -1.359,-2.425 -2.719,-2.987l-1.087,-0.458c-1.797,-0.775 -3.428,-1.8 -3.428,-3.997c0,-2.551 2.258,-4.078 4.642,-4.078c1.755,0 3.198,0.857 4.055,2.385l-1.568,0.942z" id="svg_95"/>
      <path stroke="null" fill="#ffffff" d="m4771.186277,3271.400115l-1.963,0l0,-15.766l1.963,0l0,15.766z" id="svg_94"/>
      <path stroke="null" fill="#ffffff" d="m4778.587277,3271.400115l-1.967,0l0,-13.966l-3.74,0l0,-1.8l9.447,0l0,1.8l-3.74,0l0,13.966z" id="svg_93"/>
      <path stroke="null" fill="#ffffff" d="m4782.455277,3255.634115l2.258,0l3.87,6.736l3.865,-6.736l2.257,0l-5.143,8.907l0,6.858l-1.964,0l0,-6.858l-5.143,-8.907z" id="svg_92"/>
      <path stroke="null" fill="#ffffff" d="m4817.934277,3263.516115c0,4.684 -3.698,8.219 -8.258,8.219c-4.561,0 -8.26,-3.535 -8.26,-8.219c0,-4.515 3.744,-8.218 8.26,-8.218c4.519,0 8.258,3.703 8.258,8.218zm-1.968,0c0,-3.469 -2.588,-6.376 -6.29,-6.376c-3.703,0 -6.292,2.907 -6.292,6.376c0,3.598 2.883,6.377 6.292,6.377c3.408,0 6.29,-2.78 6.29,-6.377z" id="svg_91"/>
      <path stroke="null" fill="#ffffff" d="m4821.992277,3257.434115l0,4.43l5.476,0l0,1.8l-5.476,0l0,7.736l-1.967,0l0,-15.766l7.634,0l0,1.8l-5.667,0z" id="svg_90"/>
      <path stroke="null" fill="#ffffff" d="m4843.416277,3258.625115c-0.58,-0.983 -1.335,-1.485 -2.526,-1.485c-1.254,0 -2.634,0.857 -2.634,2.236c0,1.238 1.213,1.883 2.196,2.259l1.127,0.44c2.237,0.878 3.911,2.11 3.911,4.743c0,2.867 -2.217,4.916 -5.038,4.916c-2.555,0 -4.539,-1.883 -4.874,-4.409l1.988,-0.42c-0.021,1.734 1.359,2.987 3.049,2.987c1.699,0 2.907,-1.42 2.907,-3.074c0,-1.689 -1.355,-2.425 -2.719,-2.987l-1.087,-0.458c-1.795,-0.775 -3.428,-1.8 -3.428,-3.997c0,-2.551 2.262,-4.078 4.646,-4.078c1.756,0 3.196,0.857 4.054,2.385l-1.572,0.942z" id="svg_89"/>
      <path stroke="null" fill="#ffffff" d="m4859.330277,3258.646115c-1.127,-1.004 -2.677,-1.547 -4.16,-1.547c-3.531,0 -6.233,2.948 -6.233,6.438c0,3.455 2.679,6.401 6.189,6.401c1.551,0 3.033,-0.587 4.204,-1.633l0,2.319c-1.212,0.71 -2.76,1.11 -4.14,1.11c-4.494,0 -8.214,-3.576 -8.214,-8.132c0,-4.662 3.74,-8.305 8.382,-8.305c1.38,0 2.78,0.336 3.972,1.07l0,2.279z" id="svg_88"/>
      <path stroke="null" fill="#ffffff" d="m4863.784277,3271.400115l-1.963,0l0,-15.766l1.963,0l0,15.766z" id="svg_87"/>
      <path stroke="null" fill="#ffffff" d="m4866.940277,3255.634115l8.467,0l0,1.8l-6.499,0l0,4.413l6.311,0l0,1.796l-6.311,0l0,5.961l6.499,0l0,1.796l-8.467,0l0,-15.766z" id="svg_86"/>
      <path stroke="null" fill="#ffffff" d="m4877.856277,3254.882115l11.831,12.399l0,-11.647l1.968,0l0,16.415l-11.835,-12.398l0,11.749l-1.964,0l0,-16.518z" id="svg_85"/>
      <path stroke="null" fill="#ffffff" d="m4906.139277,3258.646115c-1.127,-1.004 -2.675,-1.547 -4.156,-1.547c-3.535,0 -6.233,2.948 -6.233,6.438c0,3.455 2.674,6.401 6.188,6.401c1.547,0 3.033,-0.587 4.201,-1.633l0,2.319c-1.209,0.71 -2.759,1.11 -4.14,1.11c-4.491,0 -8.214,-3.576 -8.214,-8.132c0,-4.662 3.739,-8.305 8.386,-8.305c1.38,0 2.776,0.336 3.968,1.07l0,2.279z" id="svg_84"/>
      <path stroke="null" fill="#ffffff" d="m4908.691277,3255.634115l8.471,0l0,1.8l-6.507,0l0,4.413l6.318,0l0,1.796l-6.318,0l0,5.961l6.507,0l0,1.796l-8.471,0l0,-15.766z" id="svg_83"/>
      <path stroke="null" fill="#ffffff" d="m4687.955277,3292.530115l-1.796,3.952l-2.114,0l7.526,-16.436l7.528,16.436l-2.113,0l-1.798,-3.952l-7.233,0zm3.616,-8.172l-2.8,6.377l5.603,0l-2.803,-6.377z" id="svg_82"/>
      <path stroke="null" fill="#ffffff" d="m4700.436277,3279.964115l11.833,12.398l0,-11.646l1.966,0l0,16.415l-11.833,-12.398l0,11.75l-1.966,0l0,-16.519z" id="svg_81"/>
      <path stroke="null" fill="#ffffff" d="m4717.078277,3280.716115l3.262,0c4.83,0 8.845,2.556 8.845,7.802c0,5.372 -3.931,7.965 -8.908,7.965l-3.199,0l0,-15.767zm1.966,13.97l0.69,0c4.015,0 7.485,-1.506 7.485,-6.087c0,-4.601 -3.47,-6.083 -7.485,-6.083l-0.69,0l0,12.17z" id="svg_80"/>
      <path stroke="null" fill="#ffffff" d="m4741.852277,3296.483115l-1.962,0l0,-13.967l-3.745,0l0,-1.8l9.452,0l0,1.8l-3.745,0l0,13.967z" id="svg_79"/>
      <path stroke="null" fill="#ffffff" d="m4747.352277,3280.716115l8.468,0l0,1.8l-6.503,0l0,4.414l6.314,0l0,1.796l-6.314,0l0,5.96l6.503,0l0,1.797l-8.468,0l0,-15.767z" id="svg_78"/>
      <path stroke="null" fill="#ffffff" d="m4769.933277,3283.729115c-1.131,-1.005 -2.679,-1.547 -4.162,-1.547c-3.533,0 -6.229,2.947 -6.229,6.438c0,3.453 2.675,6.401 6.187,6.401c1.546,0 3.032,-0.589 4.204,-1.633l0,2.318c-1.216,0.71 -2.759,1.11 -4.143,1.11c-4.492,0 -8.215,-3.576 -8.215,-8.133c0,-4.661 3.741,-8.303 8.383,-8.303c1.378,0 2.782,0.335 3.975,1.07l0,2.279z" id="svg_77"/>
      <path stroke="null" fill="#ffffff" d="m4781.789277,3287.075115l0,-6.359l1.96,0l0,15.767l-1.96,0l0,-7.569l-7.507,0l0,7.569l-1.964,0l0,-15.767l1.964,0l0,6.359l7.507,0z" id="svg_76"/>
      <path stroke="null" fill="#ffffff" d="m4786.614277,3279.964115l11.836,12.398l0,-11.646l1.963,0l0,16.415l-11.83,-12.398l0,11.75l-1.969,0l0,-16.519z" id="svg_75"/>
      <path stroke="null" fill="#ffffff" d="m4818.832277,3288.599115c0,4.683 -3.698,8.218 -8.259,8.218c-4.556,0 -8.259,-3.535 -8.259,-8.218c0,-4.516 3.743,-8.218 8.259,-8.218c4.52,0 8.259,3.702 8.259,8.218zm-1.962,0c0,-3.47 -2.593,-6.376 -6.296,-6.376c-3.698,0 -6.291,2.906 -6.291,6.376c0,3.597 2.882,6.377 6.291,6.377c3.408,0 6.296,-2.781 6.296,-6.377z" id="svg_74"/>
      <path stroke="null" fill="#ffffff" d="m4822.911277,3294.686115l4.789,0l0,1.797l-6.753,0l0,-15.767l1.964,0l0,13.97z" id="svg_73"/>
      <path stroke="null" fill="#ffffff" d="m4844.609277,3288.599115c0,4.683 -3.698,8.218 -8.255,8.218c-4.556,0 -8.258,-3.535 -8.258,-8.218c0,-4.516 3.743,-8.218 8.258,-8.218c4.516,0 8.255,3.702 8.255,8.218zm-1.964,0c0,-3.47 -2.592,-6.376 -6.291,-6.376c-3.703,0 -6.295,2.906 -6.295,6.376c0,3.597 2.887,6.377 6.295,6.377c3.405,0 6.291,-2.781 6.291,-6.377z" id="svg_72"/>
      <path stroke="null" fill="#ffffff" d="m4861.085277,3288.538115l0,0.628c0,4.327 -3.054,7.65 -7.463,7.65s-7.969,-3.805 -7.969,-8.173c0,-4.54 3.642,-8.263 8.178,-8.263c2.445,0 4.87,1.111 6.422,3.054l-1.381,1.318c-1.131,-1.548 -3.037,-2.571 -4.955,-2.571c-3.536,0 -6.295,2.861 -6.295,6.396c0,3.307 2.718,6.442 6.122,6.442c2.45,0 5.084,-2.115 5.169,-4.687l-4.078,0l0,-1.796l6.25,0l0,0.002z" id="svg_71"/>
      <path stroke="null" fill="#ffffff" d="m4861.608277,3280.716115l2.262,0l3.862,6.735l3.87,-6.735l2.262,0l-5.145,8.908l0,6.858l-1.967,0l0,-6.858l-5.144,-8.908z" id="svg_70"/>
     </g>
    </g>
   </g>
  </g>
 </g>
</svg>